<!--?xml version="1.0" encoding="UTF-8" standalone="no"?-->

<!-- Generated by graphviz version 2.28.0 (20110507.0327)
 -->
<!-- Title: finite_state_machine Pages: 1 -->
<svg width="1188pt" height="316pt" viewBox="0.00 0.00 1188.00 316.00" xmlns="http://www.w3.org/2000/svg" xmlns:xlink="http://www.w3.org/1999/xlink">
<g id="graph1" class="graph" transform="scale(1 1) rotate(0) translate(4 312)">
<title>finite_state_machine</title>
<polygon fill="white" stroke="white" points="-4,5 -4,-312 1185,-312 1185,5 -4,5"></polygon>
<!-- initial -->
<g id="node1" class="node"><title>initial</title>
<ellipse fill="none" stroke="black" cx="65" cy="-147" rx="61" ry="61"></ellipse>
<ellipse fill="none" stroke="black" cx="65" cy="-147" rx="65" ry="65"></ellipse>
<text text-anchor="middle" x="65" y="-142.8" font-family="Times,serif" font-size="14.00">initial</text>
</g>
<!-- executing -->
<g id="node6" class="node"><title>executing</title>
<ellipse fill="none" stroke="black" cx="279" cy="-247" rx="61" ry="61"></ellipse>
<text text-anchor="middle" x="279" y="-242.8" font-family="Times,serif" font-size="14.00">executing</text>
</g>
<!-- initial&#45;&gt;executing -->
<g id="edge4" class="edge"><title>initial-&gt;executing</title>
<path fill="none" stroke="black" d="M124.21,-174.458C152.194,-187.658 185.798,-203.509 214.447,-217.022"></path>
<polygon fill="black" stroke="black" points="213.024,-220.221 223.561,-221.321 216.01,-213.89 213.024,-220.221"></polygon>
<text text-anchor="middle" x="174" y="-213.2" font-family="Times,serif" font-size="14.00">work</text>
</g>
<!-- waiting -->
<g id="node7" class="node"><title>waiting</title>
<ellipse fill="none" stroke="black" cx="279" cy="-107" rx="61" ry="61"></ellipse>
<text text-anchor="middle" x="279" y="-102.8" font-family="Times,serif" font-size="14.00">waiting</text>
</g>
<!-- initial&#45;&gt;waiting -->
<g id="edge2" class="edge"><title>initial-&gt;waiting</title>
<path fill="none" stroke="black" d="M122.658,-116.387C130.957,-113.034 139.557,-110.138 148,-108.2 167.201,-103.793 188.422,-102.252 208.052,-102.135"></path>
<polygon fill="black" stroke="black" points="208.133,-105.635 218.154,-102.195 208.175,-98.6352 208.133,-105.635"></polygon>
<text text-anchor="middle" x="174" y="-113.2" font-family="Times,serif" font-size="14.00">no_work</text>
</g>
<!-- dirty -->
<g id="node2" class="node"><title>dirty</title>
<ellipse fill="none" stroke="black" cx="1115" cy="-65" rx="61" ry="61"></ellipse>
<ellipse fill="none" stroke="black" cx="1115" cy="-65" rx="65" ry="65"></ellipse>
<text text-anchor="middle" x="1115" y="-60.8" font-family="Times,serif" font-size="14.00">dirty</text>
</g>
<!-- error -->
<g id="node3" class="node"><title>error</title>
<ellipse fill="none" stroke="black" cx="1115" cy="-235" rx="61" ry="61"></ellipse>
<ellipse fill="none" stroke="black" cx="1115" cy="-235" rx="65" ry="65"></ellipse>
<text text-anchor="middle" x="1115" y="-230.8" font-family="Times,serif" font-size="14.00">error</text>
</g>
<!-- fetchingWork -->
<g id="node4" class="node"><title>fetchingWork</title>
<ellipse fill="none" stroke="black" cx="831" cy="-138" rx="61" ry="61"></ellipse>
<text text-anchor="middle" x="831" y="-133.8" font-family="Times,serif" font-size="14.00">fetching work</text>
</g>
<!-- fetchingWork&#45;&gt;dirty -->
<g id="edge8" class="edge"><title>fetchingWork-&gt;dirty</title>
<path fill="none" stroke="black" d="M890.431,-122.874C934.41,-111.49 994.937,-95.8213 1041.92,-83.6584"></path>
<polygon fill="black" stroke="black" points="1042.93,-87.0134 1051.73,-81.119 1041.17,-80.2368 1042.93,-87.0134"></polygon>
<text text-anchor="middle" x="984" y="-115.2" font-family="Times,serif" font-size="14.00">no_further_work</text>
</g>
<!-- fetchingWork&#45;&gt;error -->
<g id="edge10" class="edge"><title>fetchingWork-&gt;error</title>
<path fill="none" stroke="black" stroke-dasharray="1,5" d="M889.535,-156.376C929.613,-169.339 984.235,-187.332 1032,-204.2 1036.14,-205.664 1040.4,-207.19 1044.69,-208.745"></path>
<polygon fill="black" stroke="black" points="1043.5,-212.037 1054.09,-212.184 1045.9,-205.462 1043.5,-212.037"></polygon>
<text text-anchor="middle" x="984" y="-209.2" font-family="Times,serif" font-size="14.00">internal_error</text>
</g>
<!-- fetchingWork&#45;&gt;executing -->
<g id="edge12" class="edge"><title>fetchingWork-&gt;executing</title>
<path fill="none" stroke="black" d="M772.499,-156.052C715.901,-173.212 626.753,-198.619 548,-214 481.435,-227.001 404.512,-235.847 350.199,-241.082"></path>
<polygon fill="black" stroke="black" points="349.613,-237.621 339.988,-242.049 350.274,-244.59 349.613,-237.621"></polygon>
<text text-anchor="middle" x="487" y="-237.2" font-family="Times,serif" font-size="14.00">got_work</text>
</g>
<!-- uploadingResults -->
<g id="node5" class="node"><title>uploadingResults</title>
<ellipse fill="none" stroke="black" cx="487" cy="-144" rx="61" ry="61"></ellipse>
<text text-anchor="middle" x="487" y="-139.8" font-family="Times,serif" font-size="14.00">uploading results</text>
</g>
<!-- uploadingResults&#45;&gt;dirty -->
<g id="edge18" class="edge"><title>uploadingResults-&gt;dirty</title>
<path fill="none" stroke="black" d="M542.4,-117.983C593.205,-95.2229 671.83,-63.8773 744,-51.2 820.167,-37.8207 840.714,-48.4826 918,-51.2 958.354,-52.6189 1003.29,-55.6761 1039.95,-58.5532"></path>
<polygon fill="black" stroke="black" points="1039.82,-62.0532 1050.06,-59.3584 1040.37,-55.0753 1039.82,-62.0532"></polygon>
<text text-anchor="middle" x="831" y="-56.2" font-family="Times,serif" font-size="14.00">unsuccessful_results_uploaded</text>
</g>
<!-- uploadingResults&#45;&gt;error -->
<g id="edge16" class="edge"><title>uploadingResults-&gt;error</title>
<path fill="none" stroke="black" stroke-dasharray="1,5" d="M545.618,-161.43C597.121,-176.282 674.903,-196.926 744,-208 845.585,-224.28 964.454,-230.756 1039.49,-233.324"></path>
<polygon fill="black" stroke="black" points="1039.67,-236.832 1049.78,-233.661 1039.9,-229.835 1039.67,-236.832"></polygon>
<text text-anchor="middle" x="831" y="-231.2" font-family="Times,serif" font-size="14.00">internal_error</text>
</g>
<!-- uploadingResults&#45;&gt;fetchingWork -->
<g id="edge20" class="edge"><title>uploadingResults-&gt;fetchingWork</title>
<path fill="none" stroke="black" d="M548.355,-142.941C607.482,-141.904 697.537,-140.324 759.826,-139.231"></path>
<polygon fill="black" stroke="black" points="760.024,-142.728 769.961,-139.053 759.901,-135.729 760.024,-142.728"></polygon>
<text text-anchor="middle" x="646" y="-147.2" font-family="Times,serif" font-size="14.00">successful_results_uploaded</text>
</g>
<!-- executing&#45;&gt;error -->
<g id="edge14" class="edge"><title>executing-&gt;error</title>
<path fill="none" stroke="black" stroke-dasharray="1,5" d="M340.029,-251.147C346.097,-251.477 352.17,-251.77 358,-252 388.202,-253.189 395.775,-252.778 426,-253 644.677,-254.608 699.348,-250.691 918,-247 968.667,-246.145 981.448,-248.516 1032,-245 1034.72,-244.811 1037.49,-244.594 1040.29,-244.356"></path>
<polygon fill="black" stroke="black" points="1040.86,-247.818 1050.49,-243.405 1040.21,-240.848 1040.86,-247.818"></polygon>
<text text-anchor="middle" x="646" y="-258.2" font-family="Times,serif" font-size="14.00">internal_error</text>
</g>
<!-- executing&#45;&gt;uploadingResults -->
<g id="edge22" class="edge"><title>executing-&gt;uploadingResults</title>
<path fill="none" stroke="black" d="M333.855,-220.073C361.178,-206.411 394.526,-189.737 423.031,-175.484"></path>
<polygon fill="black" stroke="black" points="424.723,-178.552 432.102,-170.949 421.592,-172.291 424.723,-178.552"></polygon>
<text text-anchor="middle" x="383" y="-212.2" font-family="Times,serif" font-size="14.00">executed</text>
</g>
<!-- waiting&#45;&gt;initial -->
<g id="edge6" class="edge"><title>waiting-&gt;initial</title>
<path fill="none" stroke="black" d="M219.312,-120.968C212.808,-122.389 206.272,-123.763 200,-125 180.501,-128.847 159.312,-132.545 139.662,-135.777"></path>
<polygon fill="black" stroke="black" points="138.851,-132.363 129.543,-137.422 139.975,-139.272 138.851,-132.363"></polygon>
<text text-anchor="middle" x="174" y="-139.2" font-family="Times,serif" font-size="14.00">wake_up</text>
</g>
</g>
</svg>
