<!--?xml version="1.0" encoding="UTF-8" standalone="no"?-->

<!-- Generated by graphviz version 2.28.0 (20110507.0327)
 -->
<!-- Title: finite_state_machine Pages: 1 -->
<svg width="1060pt" height="279pt" viewBox="0.00 0.00 1060.00 279.20" xmlns="http://www.w3.org/2000/svg" xmlns:xlink="http://www.w3.org/1999/xlink">
<g id="graph1" class="graph" transform="scale(1 1) rotate(0) translate(4 275.202)">
<title>finite_state_machine</title>
<polygon fill="white" stroke="white" points="-4,5 -4,-275.202 1057,-275.202 1057,5 -4,5"></polygon>
<!-- initial -->
<g id="node1" class="node"><title>initial</title>
<ellipse fill="none" stroke="black" cx="38" cy="-108.202" rx="33.6327" ry="33.6327"></ellipse>
<ellipse fill="none" stroke="black" cx="38" cy="-108.202" rx="37.6402" ry="37.6402"></ellipse>
<text text-anchor="middle" x="38" y="-104.002" font-family="Times,serif" font-size="14.00">initial</text>
</g>
<!-- initial&#45;&gt;initial -->
<g id="edge2" class="edge"><title>initial-&gt;initial</title>
<path fill="none" stroke="black" d="M24.8822,-143.379C25.0825,-154.46 29.4551,-163.202 38,-163.202 43.7411,-163.202 47.5988,-159.256 49.573,-153.305"></path>
<polygon fill="black" stroke="black" points="53.0383,-153.798 51.1178,-143.379 46.1216,-152.722 53.0383,-153.798"></polygon>
<text text-anchor="middle" x="38" y="-167.402" font-family="Times,serif" font-size="14.00">no_work</text>
</g>
<!-- executing -->
<g id="node4" class="node"><title>executing</title>
<ellipse fill="none" stroke="black" cx="191" cy="-108.202" rx="48.6559" ry="48.6559"></ellipse>
<text text-anchor="middle" x="191" y="-104.002" font-family="Times,serif" font-size="14.00">executing</text>
</g>
<!-- initial&#45;&gt;executing -->
<g id="edge4" class="edge"><title>initial-&gt;executing</title>
<path fill="none" stroke="black" d="M75.9388,-108.202C92.887,-108.202 113.379,-108.202 132.292,-108.202"></path>
<polygon fill="black" stroke="black" points="132.306,-111.702 142.306,-108.202 132.306,-104.702 132.306,-111.702"></polygon>
<text text-anchor="middle" x="109" y="-112.402" font-family="Times,serif" font-size="14.00">work</text>
</g>
<!-- dirty -->
<g id="node2" class="node"><title>dirty</title>
<ellipse fill="none" stroke="black" cx="1018" cy="-108.202" rx="29.0795" ry="29.0795"></ellipse>
<ellipse fill="none" stroke="black" cx="1018" cy="-108.202" rx="33.0527" ry="33.0527"></ellipse>
<text text-anchor="middle" x="1018" y="-104.002" font-family="Times,serif" font-size="14.00">dirty</text>
</g>
<!-- fetchingWork -->
<g id="node3" class="node"><title>fetchingWork</title>
<ellipse fill="none" stroke="black" cx="765" cy="-207.202" rx="64.8293" ry="64.8293"></ellipse>
<text text-anchor="middle" x="765" y="-203.002" font-family="Times,serif" font-size="14.00">fetchingWork</text>
</g>
<!-- fetchingWork&#45;&gt;dirty -->
<g id="edge6" class="edge"><title>fetchingWork-&gt;dirty</title>
<path fill="none" stroke="black" d="M824.012,-180.827C838.915,-174.28 854.983,-167.418 870,-161.402 905.764,-147.075 947.064,-132.279 976.764,-121.939"></path>
<polygon fill="black" stroke="black" points="978.065,-125.193 986.367,-118.611 975.772,-118.579 978.065,-125.193"></polygon>
<text text-anchor="middle" x="918" y="-166.402" font-family="Times,serif" font-size="14.00">no_further_work</text>
</g>
<!-- fetchingWork&#45;&gt;dirty -->
<g id="edge8" class="edge"><title>fetchingWork-&gt;dirty</title>
<path fill="none" stroke="black" d="M829.701,-210.301C871.245,-209.485 925.137,-202.84 966,-178.202 978.641,-170.58 989.087,-158.51 997.162,-146.524"></path>
<polygon fill="black" stroke="black" points="1000.24,-148.2 1002.62,-137.876 994.324,-144.464 1000.24,-148.2"></polygon>
<text text-anchor="middle" x="918" y="-211.402" font-family="Times,serif" font-size="14.00">error</text>
</g>
<!-- fetchingWork&#45;&gt;executing -->
<g id="edge10" class="edge"><title>fetchingWork-&gt;executing</title>
<path fill="none" stroke="black" d="M700.605,-215.989C613.827,-225.679 454.203,-235.088 326,-195.202 293.282,-185.023 260.937,-164.409 236.224,-145.801"></path>
<polygon fill="black" stroke="black" points="238.206,-142.91 228.146,-139.586 233.937,-148.458 238.206,-142.91"></polygon>
<text text-anchor="middle" x="404" y="-225.402" font-family="Times,serif" font-size="14.00">got_work</text>
</g>
<!-- executing&#45;&gt;dirty -->
<g id="edge12" class="edge"><title>executing-&gt;dirty</title>
<path fill="none" stroke="black" d="M228.048,-76.4977C253.488,-56.3267 289.432,-32.0322 326,-21.2023 470.025,21.4513 807.231,-4.61237 966,-68.2023 972.822,-70.9348 979.483,-74.8767 985.621,-79.2329"></path>
<polygon fill="black" stroke="black" points="983.562,-82.0641 993.632,-85.3554 987.812,-76.5023 983.562,-82.0641"></polygon>
<text text-anchor="middle" x="580" y="-11.4023" font-family="Times,serif" font-size="14.00">error</text>
</g>
<!-- uploadingResults -->
<g id="node5" class="node"><title>uploadingResults</title>
<ellipse fill="none" stroke="black" cx="404" cy="-108.202" rx="78.1907" ry="78.1907"></ellipse>
<text text-anchor="middle" x="404" y="-104.002" font-family="Times,serif" font-size="14.00">uploadingResults</text>
</g>
<!-- executing&#45;&gt;uploadingResults -->
<g id="edge20" class="edge"><title>executing-&gt;uploadingResults</title>
<path fill="none" stroke="black" d="M239.616,-108.202C262.042,-108.202 289.523,-108.202 315.503,-108.202"></path>
<polygon fill="black" stroke="black" points="315.754,-111.702 325.754,-108.202 315.754,-104.702 315.754,-111.702"></polygon>
<text text-anchor="middle" x="283" y="-112.402" font-family="Times,serif" font-size="14.00">executed</text>
</g>
<!-- uploadingResults&#45;&gt;dirty -->
<g id="edge14" class="edge"><title>uploadingResults-&gt;dirty</title>
<path fill="none" stroke="black" d="M480.623,-92.713C569.587,-76.5572 721.691,-55.3922 852,-69.4023 895.088,-74.0348 943.204,-86.1773 976.305,-95.6564"></path>
<polygon fill="black" stroke="black" points="975.494,-99.0654 986.074,-98.5014 977.451,-92.3447 975.494,-99.0654"></polygon>
<text text-anchor="middle" x="765" y="-74.4023" font-family="Times,serif" font-size="14.00">error</text>
</g>
<!-- uploadingResults&#45;&gt;dirty -->
<g id="edge16" class="edge"><title>uploadingResults-&gt;dirty</title>
<path fill="none" stroke="black" d="M482.2,-108.202C612.55,-108.202 872.047,-108.202 974.231,-108.202"></path>
<polygon fill="black" stroke="black" points="974.476,-111.702 984.476,-108.202 974.476,-104.702 974.476,-111.702"></polygon>
<text text-anchor="middle" x="765" y="-112.402" font-family="Times,serif" font-size="14.00">unsuccessful_results_uploaded</text>
</g>
<!-- uploadingResults&#45;&gt;fetchingWork -->
<g id="edge18" class="edge"><title>uploadingResults-&gt;fetchingWork</title>
<path fill="none" stroke="black" d="M479.385,-128.715C542.061,-145.999 631.136,-170.563 692.874,-187.588"></path>
<polygon fill="black" stroke="black" points="691.969,-190.969 702.539,-190.253 693.829,-184.221 691.969,-190.969"></polygon>
<text text-anchor="middle" x="580" y="-182.402" font-family="Times,serif" font-size="14.00">successful_results_uploaded</text>
</g>
</g>
</svg>
